<svg xmlns="http://www.w3.org/2000/svg" viewBox="0 0 32 32"><rect x="1" y="6" width="30" height="20" rx="3" fill="#1e293b"/><rect x="4" y="9" width="4" height="4" rx="1" fill="#e2e8f0"/><rect x="9" y="9" width="4" height="4" rx="1" fill="#e2e8f0"/><rect x="14" y="9" width="4" height="4" rx="1" fill="#e2e8f0"/><rect x="19" y="9" width="4" height="4" rx="1" fill="#e2e8f0"/><rect x="24" y="9" width="4" height="4" rx="1" fill="#e2e8f0"/><rect x="4" y="14" width="4" height="4" rx="1" fill="#e2e8f0"/><rect x="9" y="14" width="4" height="4" rx="1" fill="#e2e8f0"/><rect x="14" y="14" width="4" height="4" rx="1" fill="#e2e8f0"/><rect x="19" y="14" width="4" height="4" rx="1" fill="#e2e8f0"/><rect x="24" y="14" width="4" height="4" rx="1" fill="#e2e8f0"/><rect x="4" y="19" width="19" height="4" rx="1" fill="#e2e8f0"/><rect x="24" y="19" width="4" height="4" rx="1" fill="#e2e8f0"/></svg>
